<?xml version="1.0"?>
<svg width="30" height="30" xmlns="http://www.w3.org/2000/svg">
 <g>
  <title>Layer 1</title>
  <g id="layer1">
   <path fill="#ff0000" id="path2417" d="m13.51728,25.826752c-0.612114,-0.661457 -2.140538,-1.950958 -3.396505,-2.865574c-3.721318,-2.709946 -4.227798,-3.102116 -5.738719,-4.443726c-2.785489,-2.47333 -3.968451,-4.958209 -3.964407,-8.327526c0.001982,-1.644755 0.11825,-2.278441 0.59589,-3.247933c0.810394,-1.644849 2.004122,-2.867089 3.530304,-3.614635c1.080943,-0.529443 1.614051,-0.764674 3.419158,-0.774296c1.888263,-0.010054 2.28576,0.202254 3.39652,0.790671c1.351959,0.716222 2.743505,2.246886 3.031176,3.33421l0.177643,0.67157l0.438139,-0.924904c2.475845,-5.226581 10.380352,-5.148383 13.131157,0.129911c0.872639,1.674425 0.968445,5.249735 0.194637,7.263691c-1.009382,2.627112 -2.905266,4.629996 -7.287907,7.699199c-2.87421,2.012844 -6.127142,5.058311 -6.353585,5.48605c-0.262881,0.496529 -0.012548,0.077808 -1.1735,-1.176708z"/>
   <g id="g2221"/>
  </g>
 </g>
</svg>